G04 DipTrace 3.3.1.3*
G04 cmsis_dap.gbl*
%MOIN*%
G04 #@! TF.FileFunction,Copper,L2,Bot*
G04 #@! TF.Part,Single*
G04 #@! TA.AperFunction,Conductor*
%ADD13C,0.01*%
%ADD14C,0.008*%
G04 #@! TA.AperFunction,CopperBalancing*
%ADD15C,0.025*%
%ADD16C,0.00799*%
G04 #@! TA.AperFunction,ComponentPad*
%ADD21R,0.059055X0.059055*%
%ADD22C,0.059055*%
%ADD26R,0.043307X0.043307*%
%ADD27C,0.043307*%
%ADD35C,0.047638*%
G04 #@! TA.AperFunction,ViaPad*
%ADD36C,0.031496*%
%FSLAX26Y26*%
G04*
G70*
G90*
G75*
G01*
G04 Bottom*
%LPD*%
X2086613Y1169291D2*
D13*
X2082676Y1173228D1*
X2074802Y681102D2*
X2070865Y685039D1*
Y874015D2*
X2062991Y866141D1*
X740157Y1196850D2*
X736220Y1200787D1*
X1019684Y1488188D2*
X1023621D1*
Y1464566D1*
X1244094Y1244094D1*
X1377952D1*
X1456692Y1165354D1*
Y1145669D1*
X1259842Y901574D2*
D14*
X1263779Y897637D1*
X1244094Y877952D1*
Y799212D1*
X1212598Y767716D1*
X1003936D1*
X966928Y730708D1*
Y480314D1*
X697637Y941731D2*
D13*
X716535Y960629D1*
Y1129920D1*
X582676Y1263779D1*
Y1519684D1*
X1822834Y917322D2*
Y964566D1*
X1381889D1*
X1338582Y1007873D1*
Y1102361D1*
X1192913Y1248031D1*
X980314D1*
X1511810Y1170472D2*
X1514566Y1173228D1*
X1188976Y807086D2*
D14*
X1181102Y814960D1*
X964566D1*
X897637Y748031D1*
X2379133Y877952D2*
Y719291D1*
X2368503Y708661D1*
X2271653D1*
X2224409Y755905D1*
Y1082676D1*
X1976377Y1330708D1*
X1444881D1*
X2379133Y977952D2*
Y990944D1*
X2375591Y994486D1*
X2328347D1*
X2283464Y1039369D1*
Y1397637D1*
X2263779Y1417322D1*
X1570865D1*
X1528346Y1459842D1*
Y1480314D1*
X1181102Y885826D2*
Y1141731D1*
X2379133Y1077952D2*
Y1203543D1*
X2374015Y1208661D1*
X2236220Y1200787D2*
Y1220472D1*
X2090550Y1366141D1*
X1460629D1*
X1346456Y1480314D1*
X1328346D1*
X2379133Y1027952D2*
X2346062D1*
X2318897Y1055117D1*
Y1271653D1*
X2248031Y1283464D2*
Y1370078D1*
X2224409Y1393700D1*
X1499999D1*
X1428346Y1465354D1*
Y1480314D1*
X2346456Y759842D2*
X2275590D1*
Y952755D1*
X2248031Y980314D1*
Y1082676D1*
X2074802Y1255905D1*
Y1314960D1*
D36*
X2086613Y1169291D3*
X2074802Y681102D3*
X2070865Y874015D3*
X740157Y1196850D3*
X1019684Y1488188D3*
X1456692Y1145669D3*
X1259842Y901574D3*
X697637Y941731D3*
X582676Y1519684D3*
X716535Y1129920D3*
X1822834Y917322D3*
X980314Y1248031D3*
X1511810Y1170472D3*
X1188976Y807086D3*
X897637Y748031D3*
X1444881Y1330708D3*
X1181102Y885826D3*
Y1141731D3*
X2374015Y1208661D3*
X2236220Y1200787D3*
X2318897Y1271653D3*
X2248031Y1283464D3*
X2346456Y759842D3*
X2074802Y1314960D3*
X421718Y1524434D2*
D15*
X538186D1*
X627155D2*
X995494D1*
X1043878D2*
X1169819D1*
X1365364D2*
X1391297D1*
X1465374D2*
X1491306D1*
X1565383D2*
X1591315D1*
X1665392D2*
X1691324D1*
X1765365D2*
X1791298D1*
X1865375D2*
X1891307D1*
X1965384D2*
X2531050D1*
X421718Y1499565D2*
X543030D1*
X622311D2*
X976511D1*
X1062861D2*
X1169819D1*
X1983470D2*
X2531050D1*
X421718Y1474696D2*
X548664D1*
X616677D2*
X977157D1*
X1062215D2*
X1169819D1*
X1986591D2*
X2531050D1*
X421718Y1449827D2*
X548664D1*
X616677D2*
X993269D1*
X1085396D2*
X1169819D1*
X1977836D2*
X2531050D1*
X421718Y1424959D2*
X548664D1*
X616677D2*
X1016163D1*
X1110264D2*
X1169819D1*
X1286886D2*
X1317196D1*
X1339520D2*
X1356166D1*
X2301762D2*
X2531050D1*
X421718Y1400090D2*
X548664D1*
X616677D2*
X1041067D1*
X1135131D2*
X1381034D1*
X2316367D2*
X2531050D1*
X421718Y1375221D2*
X548664D1*
X616677D2*
X1065935D1*
X1159999D2*
X1405901D1*
X2316475D2*
X2531050D1*
X421718Y1350352D2*
X548664D1*
X616677D2*
X1090802D1*
X1184867D2*
X1404968D1*
X2316475D2*
X2531050D1*
X421718Y1325483D2*
X548664D1*
X616677D2*
X1115670D1*
X1209735D2*
X1400447D1*
X2316475D2*
X2531050D1*
X421718Y1300615D2*
X548664D1*
X616677D2*
X1140538D1*
X1234638D2*
X1412719D1*
X2352144D2*
X2531050D1*
X421718Y1275746D2*
X548664D1*
X617753D2*
X945938D1*
X1259506D2*
X1492885D1*
X1770497D2*
X1985718D1*
X2363447D2*
X2531050D1*
X421718Y1250877D2*
X551427D1*
X642621D2*
X935675D1*
X1418222D2*
X1469309D1*
X1807816D2*
X2010586D1*
X2358172D2*
X2531050D1*
X421718Y1226008D2*
X573388D1*
X667489D2*
X941775D1*
X1825077D2*
X2035454D1*
X2415049D2*
X2531050D1*
X421718Y1201140D2*
X598256D1*
X692356D2*
X1192749D1*
X1838210D2*
X2060321D1*
X2418099D2*
X2531050D1*
X421718Y1176271D2*
X623124D1*
X717224D2*
X1154282D1*
X1851380D2*
X2085189D1*
X2412142D2*
X2531050D1*
X421718Y1151402D2*
X647992D1*
X755405D2*
X1137488D1*
X1224734D2*
X1242485D1*
X1864549D2*
X2110057D1*
X2412142D2*
X2531050D1*
X421718Y1126533D2*
X671926D1*
X761146D2*
X1139174D1*
X1223012D2*
X1267353D1*
X1877719D2*
X2134925D1*
X2412142D2*
X2531050D1*
X421718Y1101665D2*
X509945D1*
X559334D2*
X682548D1*
X750525D2*
X1148109D1*
X1214113D2*
X1292220D1*
X1890207D2*
X2159792D1*
X2473540D2*
X2531050D1*
X421718Y1076796D2*
X495161D1*
X574118D2*
X682548D1*
X750525D2*
X1148109D1*
X1214113D2*
X1304564D1*
X1892324D2*
X2184660D1*
X2479784D2*
X2531050D1*
X421718Y1051927D2*
X500436D1*
X568843D2*
X682548D1*
X750525D2*
X1148109D1*
X1214113D2*
X1304564D1*
X1893831D2*
X2191406D1*
X2473396D2*
X2531050D1*
X421718Y1027058D2*
X682548D1*
X750525D2*
X1148109D1*
X1214113D2*
X1304564D1*
X1895338D2*
X2191406D1*
X2479784D2*
X2531050D1*
X421718Y1002190D2*
X682548D1*
X750525D2*
X1148109D1*
X1214113D2*
X1305103D1*
X1896845D2*
X2191406D1*
X2473253D2*
X2531050D1*
X421718Y977321D2*
X672357D1*
X750525D2*
X1148109D1*
X1214113D2*
X1322076D1*
X1898352D2*
X2191406D1*
X2479784D2*
X2531050D1*
X421718Y952452D2*
X654271D1*
X749448D2*
X1148109D1*
X1214113D2*
X1346944D1*
X1900075D2*
X2191406D1*
X2473073D2*
X2531050D1*
X421718Y927583D2*
X497314D1*
X571965D2*
X655312D1*
X739939D2*
X1148109D1*
X1295641D2*
X1437408D1*
X1902012D2*
X2191406D1*
X2479784D2*
X2531050D1*
X421718Y902714D2*
X496632D1*
X572647D2*
X678924D1*
X716327D2*
X1139892D1*
X1304577D2*
X1434645D1*
X1903627D2*
X2191406D1*
X2479784D2*
X2531050D1*
X421718Y877846D2*
X523545D1*
X545734D2*
X1137129D1*
X1297292D2*
X1431702D1*
X1904919D2*
X2191406D1*
X2479784D2*
X2531050D1*
X421718Y852977D2*
X1152021D1*
X1277089D2*
X1424920D1*
X1906247D2*
X2191406D1*
X2479784D2*
X2531050D1*
X421718Y828108D2*
X932087D1*
X1277089D2*
X1418927D1*
X1905063D2*
X2191406D1*
X2412142D2*
X2531050D1*
X421718Y803239D2*
X907219D1*
X1277089D2*
X1414406D1*
X1898137D2*
X2191406D1*
X2412142D2*
X2531050D1*
X421718Y778371D2*
X865737D1*
X1268872D2*
X1413545D1*
X1891247D2*
X2191406D1*
X2412142D2*
X2531050D1*
X421718Y753502D2*
X853249D1*
X1244004D2*
X1429836D1*
X1883137D2*
X2191514D1*
X2412142D2*
X2531050D1*
X421718Y728633D2*
X857591D1*
X1010470D2*
X1447850D1*
X1850698D2*
X2206047D1*
X2412142D2*
X2531050D1*
X421718Y703764D2*
X933917D1*
X999920D2*
X1470636D1*
X1814527D2*
X2230915D1*
X2407872D2*
X2531050D1*
X421718Y678896D2*
X933917D1*
X999920D2*
X1494392D1*
X1767554D2*
X2262493D1*
X2377657D2*
X2531050D1*
X421718Y654027D2*
X933917D1*
X999920D2*
X1576746D1*
X1719613D2*
X2531050D1*
X421718Y629158D2*
X933917D1*
X999920D2*
X2531050D1*
X421718Y604289D2*
X933917D1*
X999920D2*
X2531050D1*
X421718Y579420D2*
X933917D1*
X999920D2*
X2531050D1*
X421718Y554552D2*
X933917D1*
X999920D2*
X2531050D1*
X421718Y529683D2*
X837927D1*
X895927D2*
X933917D1*
X1125443D2*
X1169819D1*
X1357326D2*
X1399371D1*
X1457336D2*
X1499344D1*
X1557345D2*
X1599353D1*
X1657354D2*
X1699362D1*
X1757327D2*
X1799372D1*
X1857337D2*
X1899345D1*
X1957346D2*
X2531050D1*
X421718Y504814D2*
X814028D1*
X1125443D2*
X1169819D1*
X1981245D2*
X2531050D1*
X421718Y479945D2*
X808394D1*
X1125443D2*
X1169819D1*
X1986878D2*
X2531050D1*
X421718Y455077D2*
X814422D1*
X1125443D2*
X1169819D1*
X1980850D2*
X2531050D1*
X421718Y430208D2*
X839362D1*
X894492D2*
X939371D1*
X994501D2*
X1008412D1*
X1125443D2*
X1169819D1*
X1286886D2*
X1300761D1*
X1355927D2*
X1400770D1*
X1455900D2*
X1500779D1*
X1555909D2*
X1600788D1*
X1655919D2*
X1700762D1*
X1755928D2*
X1800771D1*
X1855901D2*
X1900780D1*
X1955910D2*
X2531050D1*
X1174155Y1536342D2*
X1284373D1*
Y1515034D1*
X1288728Y1519932D1*
X1295413Y1525641D1*
X1302910Y1530235D1*
X1311032Y1533600D1*
X1319581Y1535652D1*
X1328346Y1536342D1*
X1337110Y1535652D1*
X1345659Y1533600D1*
X1353782Y1530235D1*
X1361278Y1525641D1*
X1367963Y1519932D1*
X1373673Y1513246D1*
X1378346Y1505578D1*
X1383018Y1513246D1*
X1388728Y1519932D1*
X1395413Y1525641D1*
X1402910Y1530235D1*
X1411032Y1533600D1*
X1419581Y1535652D1*
X1428346Y1536342D1*
X1437110Y1535652D1*
X1445659Y1533600D1*
X1453782Y1530235D1*
X1461278Y1525641D1*
X1467963Y1519932D1*
X1473673Y1513246D1*
X1478346Y1505578D1*
X1483018Y1513246D1*
X1488728Y1519932D1*
X1495413Y1525641D1*
X1502910Y1530235D1*
X1511032Y1533600D1*
X1519581Y1535652D1*
X1528346Y1536342D1*
X1537110Y1535652D1*
X1545659Y1533600D1*
X1553782Y1530235D1*
X1561278Y1525641D1*
X1567963Y1519932D1*
X1573673Y1513246D1*
X1578346Y1505578D1*
X1583018Y1513246D1*
X1588728Y1519932D1*
X1595413Y1525641D1*
X1602910Y1530235D1*
X1611032Y1533600D1*
X1619581Y1535652D1*
X1628346Y1536342D1*
X1637110Y1535652D1*
X1645659Y1533600D1*
X1653782Y1530235D1*
X1661278Y1525641D1*
X1667963Y1519932D1*
X1673673Y1513246D1*
X1678346Y1505578D1*
X1683018Y1513246D1*
X1688728Y1519932D1*
X1695413Y1525641D1*
X1702910Y1530235D1*
X1711032Y1533600D1*
X1719581Y1535652D1*
X1728346Y1536342D1*
X1737110Y1535652D1*
X1745659Y1533600D1*
X1753782Y1530235D1*
X1761278Y1525641D1*
X1767963Y1519932D1*
X1773673Y1513246D1*
X1778346Y1505578D1*
X1783018Y1513246D1*
X1788728Y1519932D1*
X1795413Y1525641D1*
X1802910Y1530235D1*
X1811032Y1533600D1*
X1819581Y1535652D1*
X1828346Y1536342D1*
X1837110Y1535652D1*
X1845659Y1533600D1*
X1853782Y1530235D1*
X1861278Y1525641D1*
X1867963Y1519932D1*
X1873673Y1513246D1*
X1878346Y1505578D1*
X1883018Y1513246D1*
X1888728Y1519932D1*
X1895413Y1525641D1*
X1902910Y1530235D1*
X1911032Y1533600D1*
X1919581Y1535652D1*
X1928346Y1536342D1*
X1937110Y1535652D1*
X1945659Y1533600D1*
X1953782Y1530235D1*
X1961278Y1525641D1*
X1967963Y1519932D1*
X1973673Y1513246D1*
X1978267Y1505750D1*
X1981631Y1497628D1*
X1983683Y1489079D1*
X1984373Y1480314D1*
X1983683Y1471550D1*
X1981631Y1463001D1*
X1978267Y1454878D1*
X1973969Y1447825D1*
X2266172Y1447728D1*
X2270899Y1446979D1*
X2275451Y1445500D1*
X2279715Y1443328D1*
X2283587Y1440514D1*
X2305031Y1419204D1*
X2308139Y1415564D1*
X2310640Y1411484D1*
X2312471Y1407062D1*
X2313588Y1402408D1*
X2313963Y1397628D1*
X2313964Y1313632D1*
X2318897Y1313901D1*
X2325506Y1313381D1*
X2331952Y1311833D1*
X2338077Y1309296D1*
X2343730Y1305832D1*
X2348771Y1301527D1*
X2353076Y1296486D1*
X2356540Y1290833D1*
X2359077Y1284708D1*
X2360625Y1278262D1*
X2361145Y1271653D1*
X2360625Y1265044D1*
X2359077Y1258597D1*
X2356540Y1252473D1*
X2353076Y1246820D1*
X2350767Y1243939D1*
X2354835Y1246304D1*
X2360960Y1248841D1*
X2367406Y1250389D1*
X2374015Y1250909D1*
X2380624Y1250389D1*
X2387070Y1248841D1*
X2393195Y1246304D1*
X2398848Y1242840D1*
X2403889Y1238534D1*
X2408194Y1233493D1*
X2411658Y1227841D1*
X2414195Y1221716D1*
X2415743Y1215270D1*
X2416263Y1208661D1*
X2415743Y1202052D1*
X2414195Y1195605D1*
X2411658Y1189480D1*
X2409627Y1185972D1*
X2409633Y1121978D1*
X2414253Y1123749D1*
X2421600Y1125513D1*
X2429133Y1126106D1*
X2436666Y1125513D1*
X2444013Y1123749D1*
X2450994Y1120857D1*
X2457437Y1116909D1*
X2463183Y1112002D1*
X2468090Y1106256D1*
X2472038Y1099813D1*
X2474930Y1092832D1*
X2476694Y1085485D1*
X2477287Y1077952D1*
X2476694Y1070419D1*
X2474930Y1063072D1*
X2472038Y1056091D1*
X2470285Y1052959D1*
X2473621Y1046380D1*
X2475956Y1039193D1*
X2477138Y1031730D1*
Y1024174D1*
X2475956Y1016711D1*
X2473621Y1009524D1*
X2470285Y1002959D1*
X2473621Y996380D1*
X2475956Y989193D1*
X2477138Y981730D1*
Y974174D1*
X2475956Y966711D1*
X2473621Y959524D1*
X2470285Y952959D1*
X2473621Y946380D1*
X2475956Y939193D1*
X2477138Y931730D1*
X2477287Y926105D1*
Y829798D1*
X2409645D1*
X2409539Y716898D1*
X2408790Y712170D1*
X2407312Y707619D1*
X2405139Y703354D1*
X2402326Y699482D1*
X2390070Y687094D1*
X2386431Y683986D1*
X2382350Y681485D1*
X2377928Y679653D1*
X2373274Y678536D1*
X2368503Y678161D1*
X2269260Y678255D1*
X2264533Y679003D1*
X2259981Y680482D1*
X2255716Y682655D1*
X2251845Y685468D1*
X2202842Y734338D1*
X2199734Y737977D1*
X2197233Y742058D1*
X2195401Y746480D1*
X2194284Y751133D1*
X2193909Y755905D1*
Y1070071D1*
X1963743Y1300208D1*
X1731324D1*
X1808231Y1248764D1*
X1811217Y1245870D1*
X1813713Y1242544D1*
X1866336Y1143319D1*
X1886865Y1104186D1*
X1888079Y1100209D1*
X1888655Y1096091D1*
X1897205Y957439D1*
X1900961Y905604D1*
X1904436Y837646D1*
X1903963Y833514D1*
X1883805Y760641D1*
X1881558Y755074D1*
X1879293Y751587D1*
X1876511Y748496D1*
X1873280Y745879D1*
X1807473Y700883D1*
X1699487Y644964D1*
X1695552Y643620D1*
X1691456Y642907D1*
X1687298Y642844D1*
X1631126Y650786D1*
X1567118Y654868D1*
X1537316Y659224D1*
X1533351Y660479D1*
X1498136Y678087D1*
X1494753Y680506D1*
X1486068Y689652D1*
X1446793Y732834D1*
X1418040Y774073D1*
X1416237Y777820D1*
X1415042Y781803D1*
X1414485Y785924D1*
X1414580Y790081D1*
X1422784Y835653D1*
X1434519Y878993D1*
X1440525Y933042D1*
X1379418Y933163D1*
X1374535Y933936D1*
X1369834Y935464D1*
X1365430Y937708D1*
X1361431Y940613D1*
X1316308Y985599D1*
X1313098Y989358D1*
X1310515Y993573D1*
X1308624Y998139D1*
X1307470Y1002946D1*
X1307082Y1007873D1*
Y1089294D1*
X1179872Y1216523D1*
X1008504Y1216531D1*
X1002389Y1212008D1*
X996482Y1208999D1*
X990177Y1206950D1*
X983629Y1205913D1*
X976999D1*
X970452Y1206950D1*
X964147Y1208999D1*
X958240Y1212008D1*
X952876Y1215905D1*
X948189Y1220593D1*
X944292Y1225956D1*
X941282Y1231863D1*
X939233Y1238168D1*
X938196Y1244716D1*
Y1251345D1*
X939233Y1257893D1*
X941282Y1264198D1*
X944292Y1270105D1*
X948189Y1275469D1*
X952876Y1280156D1*
X958240Y1284053D1*
X964147Y1287063D1*
X970452Y1289111D1*
X976999Y1290149D1*
X983629D1*
X990177Y1289111D1*
X996482Y1287063D1*
X1002389Y1284053D1*
X1008428Y1279532D1*
X1164077Y1279531D1*
X999668Y1444108D1*
X996763Y1448107D1*
X994519Y1452512D1*
X993660Y1454841D1*
X987559Y1460750D1*
X983662Y1466114D1*
X980652Y1472021D1*
X978604Y1478326D1*
X977566Y1484873D1*
Y1491503D1*
X978604Y1498051D1*
X980652Y1504356D1*
X983662Y1510263D1*
X987559Y1515626D1*
X992246Y1520314D1*
X997610Y1524211D1*
X1003517Y1527220D1*
X1009822Y1529269D1*
X1016370Y1530306D1*
X1022999D1*
X1029547Y1529269D1*
X1035852Y1527220D1*
X1041759Y1524211D1*
X1047122Y1520314D1*
X1051810Y1515626D1*
X1055707Y1510263D1*
X1058716Y1504356D1*
X1060765Y1498051D1*
X1061802Y1491503D1*
Y1484873D1*
X1060765Y1478326D1*
X1059259Y1473492D1*
X1257133Y1275602D1*
X1380423Y1275497D1*
X1385306Y1274723D1*
X1390007Y1273196D1*
X1394411Y1270952D1*
X1398410Y1268047D1*
X1446330Y1220263D1*
X1484975Y1266543D1*
X1519163Y1296508D1*
X1523893Y1300187D1*
X1474106Y1300208D1*
X1469714Y1296528D1*
X1464061Y1293065D1*
X1457936Y1290528D1*
X1451490Y1288980D1*
X1444881Y1288460D1*
X1438272Y1288980D1*
X1431826Y1290528D1*
X1425701Y1293065D1*
X1420048Y1296528D1*
X1415007Y1300834D1*
X1410702Y1305875D1*
X1407238Y1311528D1*
X1404701Y1317653D1*
X1403153Y1324099D1*
X1402633Y1330708D1*
X1403153Y1337317D1*
X1404701Y1343763D1*
X1407238Y1349888D1*
X1410702Y1355541D1*
X1415007Y1360582D1*
X1419326Y1364318D1*
X1353425Y1430211D1*
X1345659Y1427029D1*
X1337110Y1424976D1*
X1328346Y1424287D1*
X1319581Y1424976D1*
X1311032Y1427029D1*
X1302910Y1430393D1*
X1295413Y1434987D1*
X1288728Y1440697D1*
X1284370Y1445668D1*
X1284373Y1424287D1*
X1172318D1*
Y1536342D1*
X1174155D1*
Y536342D2*
X1284373D1*
Y515034D1*
X1288728Y519932D1*
X1295413Y525641D1*
X1302910Y530235D1*
X1311032Y533600D1*
X1319581Y535652D1*
X1328346Y536342D1*
X1337110Y535652D1*
X1345659Y533600D1*
X1353782Y530235D1*
X1361278Y525641D1*
X1367963Y519932D1*
X1373673Y513246D1*
X1378346Y505578D1*
X1383018Y513246D1*
X1388728Y519932D1*
X1395413Y525641D1*
X1402910Y530235D1*
X1411032Y533600D1*
X1419581Y535652D1*
X1428346Y536342D1*
X1437110Y535652D1*
X1445659Y533600D1*
X1453782Y530235D1*
X1461278Y525641D1*
X1467963Y519932D1*
X1473673Y513246D1*
X1478346Y505578D1*
X1483018Y513246D1*
X1488728Y519932D1*
X1495413Y525641D1*
X1502910Y530235D1*
X1511032Y533600D1*
X1519581Y535652D1*
X1528346Y536342D1*
X1537110Y535652D1*
X1545659Y533600D1*
X1553782Y530235D1*
X1561278Y525641D1*
X1567963Y519932D1*
X1573673Y513246D1*
X1578346Y505578D1*
X1583018Y513246D1*
X1588728Y519932D1*
X1595413Y525641D1*
X1602910Y530235D1*
X1611032Y533600D1*
X1619581Y535652D1*
X1628346Y536342D1*
X1637110Y535652D1*
X1645659Y533600D1*
X1653782Y530235D1*
X1661278Y525641D1*
X1667963Y519932D1*
X1673673Y513246D1*
X1678346Y505578D1*
X1683018Y513246D1*
X1688728Y519932D1*
X1695413Y525641D1*
X1702910Y530235D1*
X1711032Y533600D1*
X1719581Y535652D1*
X1728346Y536342D1*
X1737110Y535652D1*
X1745659Y533600D1*
X1753782Y530235D1*
X1761278Y525641D1*
X1767963Y519932D1*
X1773673Y513246D1*
X1778346Y505578D1*
X1783018Y513246D1*
X1788728Y519932D1*
X1795413Y525641D1*
X1802910Y530235D1*
X1811032Y533600D1*
X1819581Y535652D1*
X1828346Y536342D1*
X1837110Y535652D1*
X1845659Y533600D1*
X1853782Y530235D1*
X1861278Y525641D1*
X1867963Y519932D1*
X1873673Y513246D1*
X1878346Y505578D1*
X1883018Y513246D1*
X1888728Y519932D1*
X1895413Y525641D1*
X1902910Y530235D1*
X1911032Y533600D1*
X1919581Y535652D1*
X1928346Y536342D1*
X1937110Y535652D1*
X1945659Y533600D1*
X1953782Y530235D1*
X1961278Y525641D1*
X1967963Y519932D1*
X1973673Y513246D1*
X1978267Y505750D1*
X1981631Y497628D1*
X1983683Y489079D1*
X1984373Y480314D1*
X1983683Y471550D1*
X1981631Y463001D1*
X1978267Y454878D1*
X1973673Y447382D1*
X1967963Y440697D1*
X1961278Y434987D1*
X1953782Y430393D1*
X1945659Y427029D1*
X1937110Y424976D1*
X1928346Y424287D1*
X1919581Y424976D1*
X1911032Y427029D1*
X1902910Y430393D1*
X1895413Y434987D1*
X1888728Y440697D1*
X1883018Y447382D1*
X1878346Y455050D1*
X1873673Y447382D1*
X1867963Y440697D1*
X1861278Y434987D1*
X1853782Y430393D1*
X1845659Y427029D1*
X1837110Y424976D1*
X1828346Y424287D1*
X1819581Y424976D1*
X1811032Y427029D1*
X1802910Y430393D1*
X1795413Y434987D1*
X1788728Y440697D1*
X1783018Y447382D1*
X1778346Y455050D1*
X1773673Y447382D1*
X1767963Y440697D1*
X1761278Y434987D1*
X1753782Y430393D1*
X1745659Y427029D1*
X1737110Y424976D1*
X1728346Y424287D1*
X1719581Y424976D1*
X1711032Y427029D1*
X1702910Y430393D1*
X1695413Y434987D1*
X1688728Y440697D1*
X1683018Y447382D1*
X1678346Y455050D1*
X1673673Y447382D1*
X1667963Y440697D1*
X1661278Y434987D1*
X1653782Y430393D1*
X1645659Y427029D1*
X1637110Y424976D1*
X1628346Y424287D1*
X1619581Y424976D1*
X1611032Y427029D1*
X1602910Y430393D1*
X1595413Y434987D1*
X1588728Y440697D1*
X1583018Y447382D1*
X1578346Y455050D1*
X1573673Y447382D1*
X1567963Y440697D1*
X1561278Y434987D1*
X1553782Y430393D1*
X1545659Y427029D1*
X1537110Y424976D1*
X1528346Y424287D1*
X1519581Y424976D1*
X1511032Y427029D1*
X1502910Y430393D1*
X1495413Y434987D1*
X1488728Y440697D1*
X1483018Y447382D1*
X1478346Y455050D1*
X1473673Y447382D1*
X1467963Y440697D1*
X1461278Y434987D1*
X1453782Y430393D1*
X1445659Y427029D1*
X1437110Y424976D1*
X1428346Y424287D1*
X1419581Y424976D1*
X1411032Y427029D1*
X1402910Y430393D1*
X1395413Y434987D1*
X1388728Y440697D1*
X1383018Y447382D1*
X1378346Y455050D1*
X1373673Y447382D1*
X1367963Y440697D1*
X1361278Y434987D1*
X1353782Y430393D1*
X1345659Y427029D1*
X1337110Y424976D1*
X1328346Y424287D1*
X1319581Y424976D1*
X1311032Y427029D1*
X1302910Y430393D1*
X1295413Y434987D1*
X1288728Y440697D1*
X1284370Y445668D1*
X1284373Y424287D1*
X1172318D1*
Y536342D1*
X1174155D1*
X571851Y1068724D2*
X570935Y1062939D1*
X569125Y1057368D1*
X566466Y1052150D1*
X563023Y1047411D1*
X558882Y1043269D1*
X554143Y1039826D1*
X548924Y1037167D1*
X543354Y1035357D1*
X537568Y1034441D1*
X531711D1*
X525926Y1035357D1*
X520355Y1037167D1*
X515137Y1039826D1*
X510398Y1043269D1*
X506256Y1047411D1*
X502813Y1052150D1*
X500154Y1057368D1*
X498344Y1062939D1*
X497428Y1068724D1*
Y1074581D1*
X498344Y1080367D1*
X500154Y1085937D1*
X502813Y1091156D1*
X506256Y1095895D1*
X510398Y1100036D1*
X515137Y1103479D1*
X520355Y1106138D1*
X525926Y1107948D1*
X531711Y1108864D1*
X537568D1*
X543354Y1107948D1*
X548924Y1106138D1*
X554143Y1103479D1*
X558882Y1100036D1*
X563023Y1095895D1*
X566466Y1091156D1*
X569125Y1085937D1*
X570935Y1080367D1*
X571851Y1074581D1*
Y1068724D1*
Y911244D2*
X570935Y905459D1*
X569125Y899888D1*
X566466Y894669D1*
X563023Y889931D1*
X558882Y885789D1*
X554143Y882346D1*
X548924Y879687D1*
X543354Y877877D1*
X537568Y876961D1*
X531711D1*
X525926Y877877D1*
X520355Y879687D1*
X515137Y882346D1*
X510398Y885789D1*
X506256Y889931D1*
X502813Y894669D1*
X500154Y899888D1*
X498344Y905459D1*
X497428Y911244D1*
Y917101D1*
X498344Y922886D1*
X500154Y928457D1*
X502813Y933676D1*
X506256Y938414D1*
X510398Y942556D1*
X515137Y945999D1*
X520355Y948658D1*
X525926Y950468D1*
X531711Y951384D1*
X537568D1*
X543354Y950468D1*
X548924Y948658D1*
X554143Y945999D1*
X558882Y942556D1*
X563023Y938414D1*
X566466Y933676D1*
X569125Y928457D1*
X570935Y922886D1*
X571851Y917101D1*
Y911244D1*
X1012738Y536342D2*
X1122956D1*
Y424287D1*
X1010901D1*
Y445595D1*
X1006546Y440697D1*
X999861Y434987D1*
X992364Y430393D1*
X984242Y427029D1*
X975693Y424976D1*
X966928Y424287D1*
X958164Y424976D1*
X949615Y427029D1*
X941492Y430393D1*
X933996Y434987D1*
X927311Y440697D1*
X921601Y447382D1*
X916928Y455050D1*
X912256Y447382D1*
X906546Y440697D1*
X899861Y434987D1*
X892364Y430393D1*
X884242Y427029D1*
X875693Y424976D1*
X866928Y424287D1*
X858164Y424976D1*
X849615Y427029D1*
X841492Y430393D1*
X833996Y434987D1*
X827311Y440697D1*
X821601Y447382D1*
X817007Y454878D1*
X813643Y463001D1*
X811591Y471550D1*
X810901Y480314D1*
X811591Y489079D1*
X813643Y497628D1*
X817007Y505750D1*
X821601Y513246D1*
X827311Y519932D1*
X833996Y525641D1*
X841492Y530235D1*
X849615Y533600D1*
X858164Y535652D1*
X866928Y536342D1*
X875693Y535652D1*
X884242Y533600D1*
X892364Y530235D1*
X899861Y525641D1*
X906546Y519932D1*
X912256Y513246D1*
X916928Y505578D1*
X921601Y513246D1*
X927311Y519932D1*
X933996Y525641D1*
X936440Y527274D1*
X936429Y730717D1*
X931816Y723198D1*
X927511Y718157D1*
X922470Y713851D1*
X916817Y710387D1*
X910692Y707850D1*
X904246Y706303D1*
X897637Y705783D1*
X891028Y706303D1*
X884582Y707850D1*
X878457Y710387D1*
X872804Y713851D1*
X867763Y718157D1*
X863458Y723198D1*
X859994Y728851D1*
X857457Y734975D1*
X855909Y741422D1*
X855389Y748031D1*
X855909Y754640D1*
X857457Y761086D1*
X859994Y767211D1*
X863458Y772863D1*
X867763Y777905D1*
X872804Y782210D1*
X878457Y785674D1*
X884582Y788211D1*
X891028Y789759D1*
X896718Y790243D1*
X944758Y838152D1*
X948630Y840965D1*
X952894Y843138D1*
X957446Y844617D1*
X962173Y845366D1*
X1038057Y845460D1*
X1168046Y845646D1*
X1161921Y848183D1*
X1156269Y851647D1*
X1151228Y855952D1*
X1146922Y860993D1*
X1143458Y866646D1*
X1140921Y872771D1*
X1139374Y879217D1*
X1138854Y885826D1*
X1139374Y892435D1*
X1140921Y898881D1*
X1143458Y905006D1*
X1146922Y910659D1*
X1150603Y915024D1*
X1150602Y1112506D1*
X1146922Y1116899D1*
X1143458Y1122551D1*
X1140921Y1128676D1*
X1139374Y1135122D1*
X1138854Y1141731D1*
X1139374Y1148341D1*
X1140921Y1154787D1*
X1143458Y1160912D1*
X1146922Y1166564D1*
X1151228Y1171605D1*
X1156269Y1175911D1*
X1161921Y1179375D1*
X1168046Y1181912D1*
X1174493Y1183459D1*
X1181102Y1183980D1*
X1187711Y1183459D1*
X1194157Y1181912D1*
X1200282Y1179375D1*
X1205934Y1175911D1*
X1210975Y1171605D1*
X1215281Y1166564D1*
X1218745Y1160912D1*
X1221282Y1154787D1*
X1222829Y1148341D1*
X1223350Y1141731D1*
X1222829Y1135122D1*
X1221282Y1128676D1*
X1218745Y1122551D1*
X1215281Y1116899D1*
X1211600Y1112533D1*
X1211602Y915051D1*
X1215281Y910659D1*
X1217890Y906532D1*
X1218761Y911437D1*
X1220810Y917742D1*
X1223819Y923649D1*
X1227716Y929012D1*
X1232404Y933700D1*
X1237767Y937596D1*
X1243674Y940606D1*
X1249979Y942655D1*
X1256527Y943692D1*
X1263156D1*
X1269704Y942655D1*
X1276009Y940606D1*
X1281916Y937596D1*
X1287280Y933700D1*
X1291967Y929012D1*
X1295864Y923649D1*
X1298874Y917742D1*
X1300922Y911437D1*
X1301960Y904889D1*
Y898259D1*
X1300922Y891711D1*
X1298874Y885406D1*
X1295864Y879499D1*
X1291967Y874136D1*
X1287280Y869448D1*
X1281916Y865552D1*
X1276009Y862542D1*
X1274587Y862017D1*
X1274500Y796819D1*
X1273751Y792092D1*
X1272272Y787540D1*
X1270099Y783276D1*
X1267286Y779404D1*
X1234164Y746149D1*
X1230525Y743041D1*
X1226444Y740540D1*
X1222023Y738708D1*
X1217369Y737591D1*
X1212598Y737216D1*
X1016562D1*
X997414Y718060D1*
X997429Y527280D1*
X1003315Y522918D1*
X1009532Y516701D1*
X1010904Y514960D1*
X1010901Y536342D1*
X1012738D1*
X945387Y752300D2*
X977561Y784474D1*
X966646Y773906D1*
X939876Y747136D1*
X939753Y744555D1*
X942253Y748635D1*
X945368Y752281D1*
X685035Y982052D2*
Y1101762D1*
X680512Y1107846D1*
X677503Y1113753D1*
X675454Y1120058D1*
X674381Y1127525D1*
X558724Y1243321D1*
X555818Y1247320D1*
X553574Y1251724D1*
X552047Y1256425D1*
X551273Y1261307D1*
X551176Y1328083D1*
Y1491536D1*
X546654Y1497610D1*
X543644Y1503517D1*
X541596Y1509822D1*
X540559Y1516370D1*
Y1522999D1*
X541596Y1529547D1*
X543644Y1535852D1*
X546654Y1541759D1*
X550551Y1547122D1*
X552565Y1549301D1*
X419234Y1549302D1*
X419200Y419214D1*
X2533520Y419200D1*
X2533554Y1549288D1*
X612794Y1549302D1*
X616856Y1544517D1*
X620320Y1538864D1*
X622857Y1532740D1*
X624404Y1526293D1*
X624924Y1519684D1*
X624404Y1513075D1*
X622857Y1506629D1*
X620320Y1500504D1*
X616856Y1494851D1*
X614178Y1491571D1*
X614176Y1276856D1*
X718905Y1172098D1*
X726397Y1171001D1*
X732702Y1168953D1*
X738609Y1165943D1*
X743973Y1162046D1*
X748660Y1157358D1*
X752557Y1151995D1*
X755567Y1146088D1*
X757615Y1139783D1*
X758652Y1133235D1*
Y1126606D1*
X757615Y1120058D1*
X755567Y1113753D1*
X752557Y1107846D1*
X748036Y1101807D1*
X747938Y958158D1*
X747164Y953276D1*
X745637Y948575D1*
X743393Y944170D1*
X740481Y940164D1*
X739755Y938417D1*
X738718Y931869D1*
X736669Y925564D1*
X733659Y919657D1*
X729763Y914294D1*
X725075Y909606D1*
X719712Y905709D1*
X713805Y902699D1*
X707500Y900651D1*
X700952Y899614D1*
X694322D1*
X687774Y900651D1*
X681469Y902699D1*
X675562Y905709D1*
X670199Y909606D1*
X665511Y914294D1*
X661615Y919657D1*
X658605Y925564D1*
X656556Y931869D1*
X655519Y938417D1*
Y945046D1*
X656556Y951594D1*
X658605Y957899D1*
X661615Y963806D1*
X665511Y969169D1*
X670199Y973857D1*
X675562Y977754D1*
X681469Y980764D1*
X685043Y982042D1*
X1228346Y1536306D2*
D16*
Y1424322D1*
X1172354Y1480314D2*
X1228346D1*
Y536306D2*
Y424322D1*
X1172354Y480314D2*
X1228346D1*
X1066928Y536306D2*
Y424322D1*
Y480314D2*
X1122920D1*
X1545708Y1265780D2*
D15*
X1710154D1*
X1517288Y1240911D2*
X1747437D1*
X1496045Y1216043D2*
X1781204D1*
X1501571Y1191174D2*
X1794374D1*
X1500602Y1166305D2*
X1807543D1*
X1502073Y1141436D2*
X1820713D1*
X1502647Y1116567D2*
X1560983D1*
X1644533D2*
X1833882D1*
X1499884Y1091699D2*
X1552981D1*
X1652571D2*
X1847052D1*
X1497121Y1066830D2*
X1559081D1*
X1646435D2*
X1848846D1*
X1494358Y1041961D2*
X1850353D1*
X1491595Y1017092D2*
X1851860D1*
X1488832Y992224D2*
X1853367D1*
X1486069Y967355D2*
X1854874D1*
X1483306Y942486D2*
X1584056D1*
X1621460D2*
X1856740D1*
X1480543Y917617D2*
X1557179D1*
X1648337D2*
X1858642D1*
X1477780Y892749D2*
X1553232D1*
X1652284D2*
X1860078D1*
X1474407Y867880D2*
X1563782D1*
X1641734D2*
X1861405D1*
X1467624Y843011D2*
X1862697D1*
X1461739Y818142D2*
X1856812D1*
X1457218Y793273D2*
X1849887D1*
X1472002Y768405D2*
X1834708D1*
X1492097Y743536D2*
X1798536D1*
X1514884Y718667D2*
X1754542D1*
X1572873Y693798D2*
X1706601D1*
X1649933Y894318D2*
X1648772Y886984D1*
X1646477Y879923D1*
X1643106Y873307D1*
X1638742Y867300D1*
X1633492Y862049D1*
X1627484Y857685D1*
X1620869Y854314D1*
X1613807Y852019D1*
X1606473Y850858D1*
X1599048D1*
X1591714Y852019D1*
X1584652Y854314D1*
X1578036Y857685D1*
X1572029Y862049D1*
X1566779Y867300D1*
X1562414Y873307D1*
X1559043Y879923D1*
X1556749Y886984D1*
X1555587Y894318D1*
Y901743D1*
X1556749Y909077D1*
X1559043Y916139D1*
X1562414Y922755D1*
X1566779Y928762D1*
X1572029Y934012D1*
X1578036Y938377D1*
X1584652Y941748D1*
X1591714Y944042D1*
X1599048Y945204D1*
X1606473D1*
X1613807Y944042D1*
X1620869Y941748D1*
X1627484Y938377D1*
X1633492Y934012D1*
X1638742Y928762D1*
X1643106Y922755D1*
X1646477Y916139D1*
X1648772Y909077D1*
X1649933Y901743D1*
Y894318D1*
Y1086444D2*
X1648772Y1079110D1*
X1646477Y1072049D1*
X1643106Y1065433D1*
X1638742Y1059426D1*
X1633492Y1054175D1*
X1627484Y1049811D1*
X1620869Y1046440D1*
X1613807Y1044145D1*
X1606473Y1042984D1*
X1599048D1*
X1591714Y1044145D1*
X1584652Y1046440D1*
X1578036Y1049811D1*
X1572029Y1054175D1*
X1566779Y1059426D1*
X1562414Y1065433D1*
X1559043Y1072049D1*
X1556749Y1079110D1*
X1555587Y1086444D1*
Y1093869D1*
X1556749Y1101203D1*
X1559043Y1108265D1*
X1562414Y1114881D1*
X1566779Y1120888D1*
X1572029Y1126138D1*
X1578036Y1130503D1*
X1584652Y1133874D1*
X1591714Y1136168D1*
X1599048Y1137330D1*
X1606473D1*
X1613807Y1136168D1*
X1620869Y1133874D1*
X1627484Y1130503D1*
X1633492Y1126138D1*
X1638742Y1120888D1*
X1643106Y1114881D1*
X1646477Y1108265D1*
X1648772Y1101203D1*
X1649933Y1093869D1*
Y1086444D1*
X1512919Y1239284D2*
X1483055Y1203447D1*
X1488114Y1200864D1*
X1490782Y1199634D1*
X1493877Y1197027D1*
X1498574Y1191994D1*
X1499911Y1189377D1*
X1500600Y1186521D1*
X1500603Y1183582D1*
X1499920Y1180724D1*
X1498589Y1178105D1*
X1498010Y1177307D1*
X1497809Y1171369D1*
X1500627Y1120816D1*
X1472905Y871660D1*
X1461020Y827941D1*
X1454172Y790279D1*
X1478272Y755872D1*
X1519485Y710912D1*
X1547105Y697115D1*
X1572107Y693551D1*
X1635617Y689540D1*
X1686744Y682236D1*
X1788825Y735145D1*
X1847422Y775429D1*
X1865364Y839969D1*
X1860847Y921586D1*
X1856489Y982149D1*
X1849892Y1091001D1*
X1781772Y1219699D1*
X1681057Y1286843D1*
X1574975Y1290500D1*
X1543383Y1265938D1*
X1512903Y1239267D1*
D21*
X1228346Y1480314D3*
D22*
X1328346D3*
X1428346D3*
X1528346D3*
X1628346D3*
X1728346D3*
X1828346D3*
X1928346D3*
D21*
X1228346Y480314D3*
D22*
X1328346D3*
X1428346D3*
X1528346D3*
X1628346D3*
X1728346D3*
X1828346D3*
X1928346D3*
D26*
X2429133Y877952D3*
D27*
X2379133D3*
X2429133Y927952D3*
X2379133D3*
X2429133Y977952D3*
X2379133D3*
X2429133Y1027952D3*
X2379133D3*
X2429133Y1077952D3*
X2379133D3*
D21*
X1066928Y480314D3*
D22*
X966928D3*
X866928D3*
D35*
X1602760Y898031D3*
Y1090157D3*
M02*
