G04 DipTrace 3.3.1.3*
G04 cmsis_dap.gts*
%MOIN*%
G04 #@! TF.FileFunction,Soldermask,Top*
G04 #@! TF.Part,Single*
%ADD38C,0.021654*%
%ADD45C,0.055512*%
%ADD47R,0.086614X0.234646*%
%ADD49R,0.07874X0.023622*%
%ADD51R,0.09252X0.135827*%
%ADD53R,0.09252X0.045276*%
%ADD55R,0.066929X0.062992*%
%ADD57C,0.051181*%
%ADD58R,0.051181X0.051181*%
%ADD60R,0.061024X0.023622*%
%ADD62R,0.082677X0.082677*%
%ADD63R,0.066929X0.066929*%
%ADD64C,0.066929*%
%ADD66R,0.070866X0.07874*%
%ADD68R,0.07874X0.070866*%
%ADD70R,0.066929X0.059055*%
%ADD72R,0.059055X0.066929*%
%FSLAX26Y26*%
G04*
G70*
G90*
G75*
G01*
G04 TopMask*
%LPD*%
D72*
X903149Y1069291D3*
X828346D3*
X1377952Y1055117D3*
X1452755D3*
D70*
X757086Y657480D3*
Y732283D3*
D68*
X549606Y1325983D3*
Y1436220D3*
D66*
X811023Y1196850D3*
X921259D3*
D70*
X1751968Y1137794D3*
Y1062991D3*
X1759842Y799212D3*
Y874015D3*
X2145669Y649606D3*
Y574802D3*
Y870078D3*
Y795275D3*
Y1082676D3*
Y1007873D3*
Y1338582D3*
Y1263779D3*
D63*
X1228346Y1480314D3*
D64*
X1328346D3*
X1428346D3*
X1528346D3*
X1628346D3*
X1728346D3*
X1828346D3*
X1928346D3*
D63*
X1228346Y480314D3*
D64*
X1328346D3*
X1428346D3*
X1528346D3*
X1628346D3*
X1728346D3*
X1828346D3*
X1928346D3*
D62*
X449994Y1148424D3*
Y837401D3*
D60*
X555309Y1044094D3*
Y1018503D3*
Y992913D3*
Y967322D3*
Y941731D3*
D62*
X449994Y1040157D3*
Y945669D3*
D38*
X534640Y1071653D3*
Y914172D3*
D58*
X2429133Y877952D3*
D57*
X2379133D3*
X2429133Y927952D3*
X2379133D3*
X2429133Y977952D3*
X2379133D3*
X2429133Y1027952D3*
X2379133D3*
X2429133Y1077952D3*
X2379133D3*
D63*
X1066928Y480314D3*
D64*
X966928D3*
X866928D3*
D70*
X459842Y1283857D3*
Y1358661D3*
D72*
X488188Y716535D3*
X562991D3*
X1374015Y980314D3*
X1448818D3*
D70*
X1980314Y606298D3*
Y681102D3*
X1976377Y799212D3*
Y874015D3*
X1980314Y1015747D3*
Y1090550D3*
X1988188Y1271653D3*
Y1346456D3*
D72*
X1023621Y629920D3*
X960629D3*
X897637D3*
D55*
X763779Y503936D3*
X456692D3*
D53*
X662991Y1485432D3*
Y1394881D3*
Y1304330D3*
D51*
X891338Y1394881D3*
D49*
X1259842Y940944D3*
Y966535D3*
Y992125D3*
Y1017716D3*
Y1043306D3*
Y1068897D3*
Y1094487D3*
Y1120078D3*
Y1145669D3*
Y1171259D3*
X1031487D3*
X1031495Y1145669D3*
Y1120078D3*
Y1094487D3*
Y1068897D3*
Y1043306D3*
Y1017716D3*
Y992125D3*
Y966535D3*
Y940944D3*
D47*
X1602760Y811810D3*
Y1176377D3*
D45*
Y898031D3*
Y1090157D3*
M02*
