G04 DipTrace 3.3.1.3*
G04 cmsis_dap.gtl*
%MOIN*%
G04 #@! TF.FileFunction,Copper,L1,Top*
G04 #@! TF.Part,Single*
G04 #@! TA.AperFunction,Conductor*
%ADD13C,0.01*%
%ADD14C,0.008*%
G04 #@! TA.AperFunction,CopperBalancing*
%ADD15C,0.025*%
%ADD16C,0.00799*%
%ADD17R,0.051181X0.059055*%
%ADD18R,0.059055X0.051181*%
%ADD19R,0.070866X0.062992*%
%ADD20R,0.062992X0.070866*%
G04 #@! TA.AperFunction,ComponentPad*
%ADD21R,0.059055X0.059055*%
%ADD22C,0.059055*%
%ADD24R,0.074803X0.074803*%
%ADD25R,0.05315X0.015748*%
G04 #@! TA.AperFunction,ComponentPad*
%ADD26R,0.043307X0.043307*%
%ADD27C,0.043307*%
%ADD28R,0.059055X0.055118*%
%ADD30R,0.084646X0.037402*%
%ADD31R,0.084646X0.127953*%
%ADD32R,0.070866X0.015748*%
%ADD34R,0.07874X0.226772*%
G04 #@! TA.AperFunction,ComponentPad*
%ADD35C,0.047638*%
G04 #@! TA.AperFunction,ViaPad*
%ADD36C,0.031496*%
%FSLAX26Y26*%
G04*
G70*
G90*
G75*
G01*
G04 Top*
%LPD*%
X2145669Y1082676D2*
D13*
Y1110235D1*
X2086613Y1169291D1*
X2145669Y649606D2*
X2106298D1*
X2074802Y681102D1*
X903149Y1069291D2*
X958267D1*
X984251Y1043306D1*
X1031495D1*
X2145669Y870078D2*
X2074802D1*
X2070865Y874015D1*
X1066928Y480314D2*
Y531495D1*
X1023621Y574802D1*
Y629920D1*
X891338Y1394881D2*
X835826D1*
X811023Y1370078D1*
Y1196850D1*
Y1157480D1*
X834645Y1133857D1*
X874015D1*
X903149Y1104724D1*
Y1069291D1*
X811023Y1196850D2*
X740157D1*
X1259842Y1043306D2*
X1366141D1*
X1377952Y1055117D1*
X662991Y1394881D2*
X713779D1*
X818897Y1499999D1*
X1007873D1*
X1019684Y1488188D1*
X1456692Y1145669D2*
X1425196Y1114172D1*
X1409448D1*
X1377952Y1082676D1*
Y1055117D1*
X555314Y1044094D2*
X559842D1*
X590550Y1074802D1*
Y1212598D1*
X543306Y1259842D1*
Y1319684D1*
X549606Y1325983D1*
X662991Y1304330D2*
X571259D1*
X549606Y1325983D1*
X966928Y480314D2*
D14*
Y623621D1*
X960629Y629920D1*
X1259842Y940944D2*
Y901574D1*
X1031495Y940944D2*
Y779527D1*
X1328346Y482676D1*
Y480314D1*
X1031495Y966535D2*
X1080708D1*
X1086613Y960629D1*
Y763779D1*
X1291338Y559054D1*
X1349606D1*
X1428346Y480314D1*
X1759842Y874015D2*
D13*
Y1055117D1*
X1751968Y1062991D1*
X1031495Y1068897D2*
X986220D1*
X925196Y1129920D1*
Y1192913D1*
X921259Y1196850D1*
X555314Y941731D2*
X697637D1*
X582676Y1519684D2*
X559054D1*
X549606Y1510235D1*
Y1436220D1*
X828346Y1069291D2*
X777165D1*
X716535Y1129920D1*
X1759842Y874015D2*
X1779527D1*
X1822834Y917322D1*
X980314Y1248031D2*
X952755D1*
X921259Y1216535D1*
Y1196850D1*
X1452755Y1055117D2*
Y1079133D1*
X1511810Y1138188D1*
Y1170472D1*
X1259842Y992125D2*
D14*
X1362204D1*
X1374015Y980314D1*
X1759842Y799212D2*
X1615359D1*
X1602760Y811810D1*
X1259842Y966535D2*
X1320078D1*
X1335826Y950787D1*
Y922440D1*
X1446456Y811810D1*
X1602760D1*
X1448818Y980314D2*
X1458661D1*
X1539369Y1061023D1*
Y1112986D1*
X1602760Y1176377D1*
X1751968Y1137794D2*
X1641343D1*
X1602760Y1176377D1*
X2145669Y574802D2*
X2011810D1*
X1980314Y606298D1*
X2145669Y795275D2*
X1980314D1*
X1976377Y799212D1*
X2145669Y1263779D2*
X1996062D1*
X1988188Y1271653D1*
X2145669Y1007873D2*
X1988188D1*
X1980314Y1015747D1*
X1728346Y480314D2*
X1712598D1*
X1566928Y625983D1*
X1503936D1*
X1460629Y669291D1*
X1326771D1*
X1188976Y807086D1*
X897637Y748031D2*
X807086Y657480D1*
X757086D1*
X763779Y503936D2*
Y650787D1*
X757086Y657480D1*
X1259842Y1017716D2*
X1163385D1*
X1145669Y999999D1*
Y822834D1*
X1161417Y807086D1*
X1188976D1*
X1259842Y1068897D2*
X1305117D1*
X1602361Y1366141D1*
X1751968D1*
X1759842Y1358267D1*
Y1299212D1*
X1905511Y1153543D1*
Y897637D1*
X1929133Y874015D1*
X1976377D1*
X1984251D1*
X2043306Y933070D1*
X2200787D1*
Y1157480D1*
X2149606Y1208661D1*
X1929133D1*
X1838582Y1299212D1*
Y1470078D1*
X1828346Y1480314D1*
X1259842Y1094487D2*
X1307086D1*
X1618109Y1405511D1*
X1653543D1*
X1728346Y1480314D1*
X1980314Y1090550D2*
Y1118109D1*
X1791338Y1307086D1*
Y1393700D1*
X1728346Y1456692D1*
Y1480314D1*
X1444881Y1330708D2*
X1440944Y1334645D1*
X1437007Y1330708D1*
X1454815Y1312899D1*
X1497939D1*
X1305117Y1120078D1*
X1259842D1*
X1628346Y1480314D2*
Y1443306D1*
X1497939Y1312899D1*
X1259842Y1145669D2*
X1299212D1*
X1326771Y1173228D1*
Y1354330D1*
X1389763Y1417322D1*
X1465354D1*
X1528346Y1480314D1*
X2379133Y927952D2*
X2329527D1*
X2224409Y822834D1*
Y783464D1*
X2177165Y736220D1*
X1893700D1*
X1828346Y670865D1*
Y480314D1*
X1818897D1*
X1665354Y633857D1*
X1618109D1*
X1594487Y657480D1*
X1527558D1*
X1484251Y700787D1*
X1338582D1*
X1181102Y858267D1*
Y885826D1*
Y1141731D2*
Y1165354D1*
X1187007Y1171259D1*
X1259842D1*
X1031487D2*
Y1188968D1*
X1322834Y1480314D1*
X1328346D1*
X2374015Y1208661D2*
X2366141Y1200787D1*
X2236220D1*
X1031495Y1145669D2*
X1090550D1*
X1114172Y1169291D1*
Y1228346D1*
X1295275Y1409448D1*
X1357480D1*
X1428346Y1480314D1*
X2318897Y1271653D2*
X2322834Y1275590D1*
X2314960Y1283464D1*
X2248031D1*
X1628346Y480314D2*
X1625983D1*
X1464566Y641731D1*
X1287401D1*
X1125983Y803149D1*
Y1098424D1*
X1104330Y1120078D1*
X1031495D1*
X1528346Y480314D2*
X1511810D1*
X1374015Y618109D1*
X1263779D1*
X1102617Y779271D1*
Y1086357D1*
X1094487Y1094487D1*
X1031495D1*
X555314Y1018503D2*
X1030708D1*
X1031495Y1017716D1*
X555314Y992913D2*
X1011023D1*
X1011810Y992125D1*
X1031495D1*
X2429133Y877952D2*
Y842519D1*
X2346456Y759842D1*
X2074802Y1314960D2*
X2122046D1*
X2145669Y1338582D1*
X449999Y837401D2*
Y746850D1*
X480314Y716535D1*
X488188D1*
X449999Y1148424D2*
Y1274015D1*
X459842Y1283857D1*
D36*
X2086613Y1169291D3*
X2074802Y681102D3*
X2070865Y874015D3*
X740157Y1196850D3*
X1019684Y1488188D3*
X1456692Y1145669D3*
X1259842Y901574D3*
X697637Y941731D3*
X582676Y1519684D3*
X716535Y1129920D3*
X1822834Y917322D3*
X980314Y1248031D3*
X1511810Y1170472D3*
X1188976Y807086D3*
X897637Y748031D3*
X1444881Y1330708D3*
X1181102Y885826D3*
Y1141731D3*
X2374015Y1208661D3*
X2236220Y1200787D3*
X2318897Y1271653D3*
X2248031Y1283464D3*
X2346456Y759842D3*
X2074802Y1314960D3*
X421718Y1524434D2*
D15*
X591653D1*
X734305D2*
X796516D1*
X1043878D2*
X1169819D1*
X1365364D2*
X1391297D1*
X1465374D2*
X1491306D1*
X1565383D2*
X1591315D1*
X1665392D2*
X1691324D1*
X1765365D2*
X1791298D1*
X1865375D2*
X1891307D1*
X1965384D2*
X2531050D1*
X421718Y1499565D2*
X591653D1*
X734305D2*
X771397D1*
X1062861D2*
X1169819D1*
X1983470D2*
X2531050D1*
X421718Y1474696D2*
X485185D1*
X1062215D2*
X1169819D1*
X1986591D2*
X2531050D1*
X421718Y1449827D2*
X485185D1*
X962672D2*
X999477D1*
X1039895D2*
X1169819D1*
X1977836D2*
X2531050D1*
X421718Y1424959D2*
X485185D1*
X790894D2*
X820020D1*
X962672D2*
X1169819D1*
X1871583D2*
X1917179D1*
X1939511D2*
X2531050D1*
X766027Y1400090D2*
X794004D1*
X962672D2*
X1196984D1*
X1871583D2*
X2531050D1*
X741159Y1375221D2*
X777462D1*
X962672D2*
X1172116D1*
X1871583D2*
X1929667D1*
X2046733D2*
X2087127D1*
X2204193D2*
X2531050D1*
X734305Y1350352D2*
X777031D1*
X962672D2*
X1147248D1*
X1871583D2*
X1929667D1*
X2204193D2*
X2531050D1*
X734305Y1325483D2*
X777031D1*
X962672D2*
X1122380D1*
X1607331D2*
X1726850D1*
X1871583D2*
X1929667D1*
X2204193D2*
X2241142D1*
X2254936D2*
X2531050D1*
X734305Y1300615D2*
X777031D1*
X845008D2*
X1097513D1*
X1671134D2*
X1726850D1*
X1882814D2*
X1929667D1*
X2352144D2*
X2531050D1*
X734305Y1275746D2*
X777031D1*
X845008D2*
X1072645D1*
X1671134D2*
X1737687D1*
X1907682D2*
X1929667D1*
X2363447D2*
X2531050D1*
X599309Y1250877D2*
X750513D1*
X981762D2*
X1047777D1*
X1671134D2*
X1762554D1*
X2204193D2*
X2218642D1*
X2358172D2*
X2531050D1*
X621557Y1226008D2*
X707093D1*
X981762D2*
X1022910D1*
X1507860D2*
X1534403D1*
X1671134D2*
X1787422D1*
X2415049D2*
X2531050D1*
X624535Y1201140D2*
X695610D1*
X1482993D2*
X1534403D1*
X1671134D2*
X1812290D1*
X2418099D2*
X2531050D1*
X624535Y1176271D2*
X700777D1*
X1488304D2*
X1534403D1*
X1671134D2*
X1693441D1*
X1810508D2*
X1837158D1*
X2403637D2*
X2531050D1*
X624535Y1151402D2*
X750513D1*
X1501042D2*
X1532142D1*
X1810508D2*
X1862025D1*
X2233798D2*
X2531050D1*
X624535Y1126533D2*
X794937D1*
X928367D2*
X967074D1*
X1496844D2*
X1509559D1*
X1810508D2*
X1872503D1*
X2233798D2*
X2531050D1*
X624535Y1101665D2*
X773766D1*
X1671134D2*
X1693441D1*
X1810508D2*
X1872503D1*
X2233798D2*
X2334728D1*
X2473540D2*
X2531050D1*
X624535Y1076796D2*
X773766D1*
X1671134D2*
X1693441D1*
X1810508D2*
X1872503D1*
X2233798D2*
X2328484D1*
X2479784D2*
X2531050D1*
X614739Y1051927D2*
X773766D1*
X1671134D2*
X1693441D1*
X1810508D2*
X1872503D1*
X2233798D2*
X2334871D1*
X2473396D2*
X2531050D1*
X1551029Y1027058D2*
X1693441D1*
X1810508D2*
X1872503D1*
X2233798D2*
X2328484D1*
X2479784D2*
X2531050D1*
X1526161Y1002190D2*
X1872503D1*
X2233798D2*
X2335015D1*
X2473253D2*
X2531050D1*
X1503411Y977321D2*
X1872503D1*
X2233798D2*
X2328484D1*
X2479784D2*
X2531050D1*
X610899Y952452D2*
X967074D1*
X1503411D2*
X1872503D1*
X2233798D2*
X2308855D1*
X2473073D2*
X2531050D1*
X610899Y927583D2*
X967074D1*
X1503411D2*
X1534403D1*
X1671134D2*
X1872503D1*
X2233295D2*
X2283521D1*
X2479784D2*
X2531050D1*
X572647Y902714D2*
X998508D1*
X1401177D2*
X1534403D1*
X1671134D2*
X1701300D1*
X1818366D2*
X1872503D1*
X2206239D2*
X2258653D1*
X2479784D2*
X2531050D1*
X550435Y877846D2*
X998508D1*
X1426045D2*
X1534403D1*
X1671134D2*
X1701300D1*
X1818366D2*
X1879788D1*
X2204193D2*
X2233785D1*
X2479784D2*
X2531050D1*
X550435Y852977D2*
X998508D1*
X1450912D2*
X1534403D1*
X1671134D2*
X1701300D1*
X1818366D2*
X1904548D1*
X2300183D2*
X2335445D1*
X2479784D2*
X2531050D1*
X516380Y828108D2*
X998508D1*
X1818366D2*
X1917861D1*
X2275316D2*
X2369105D1*
X2458504D2*
X2531050D1*
X516380Y803239D2*
X998508D1*
X1818366D2*
X1917861D1*
X2257409D2*
X2344237D1*
X2435503D2*
X2531050D1*
X516380Y778371D2*
X698552D1*
X815619D2*
X865737D1*
X929551D2*
X998508D1*
X1818366D2*
X1917861D1*
X2256979D2*
X2305984D1*
X2410635D2*
X2531050D1*
X617574Y753502D2*
X698552D1*
X815619D2*
X853249D1*
X942039D2*
X1011893D1*
X1671134D2*
X1701300D1*
X1818366D2*
X1865363D1*
X2240077D2*
X2302181D1*
X2390719D2*
X2531050D1*
X617574Y728633D2*
X698552D1*
X815619D2*
X832616D1*
X937661D2*
X1036761D1*
X1671134D2*
X1840495D1*
X2215210D2*
X2315494D1*
X2377442D2*
X2531050D1*
X617574Y703764D2*
X698552D1*
X899014D2*
X1061629D1*
X1671134D2*
X1815627D1*
X1906893D2*
X1921772D1*
X2112976D2*
X2531050D1*
X617574Y678896D2*
X698552D1*
X1671134D2*
X1796429D1*
X1882025D2*
X1921772D1*
X2204193D2*
X2531050D1*
X421718Y654027D2*
X698552D1*
X1078219D2*
X1111364D1*
X1690834D2*
X1795352D1*
X1861356D2*
X1921772D1*
X2204193D2*
X2531050D1*
X421718Y629158D2*
X698552D1*
X820894D2*
X843058D1*
X1078219D2*
X1136232D1*
X1715702D2*
X1795352D1*
X1861356D2*
X1921772D1*
X2204193D2*
X2531050D1*
X421718Y604289D2*
X730776D1*
X796779D2*
X843058D1*
X1078219D2*
X1161100D1*
X1740569D2*
X1795352D1*
X1861356D2*
X1921772D1*
X2204193D2*
X2531050D1*
X421718Y579420D2*
X730776D1*
X796779D2*
X843058D1*
X1078219D2*
X1185967D1*
X1765437D2*
X1795352D1*
X1861356D2*
X1921772D1*
X2204193D2*
X2531050D1*
X515232Y554552D2*
X705263D1*
X822293D2*
X933917D1*
X1090922D2*
X1210835D1*
X1861356D2*
X1921772D1*
X2204193D2*
X2531050D1*
X515232Y529683D2*
X705263D1*
X822293D2*
X837927D1*
X895927D2*
X933917D1*
X1125443D2*
X1169819D1*
X1861356D2*
X1899345D1*
X1957346D2*
X2087127D1*
X2204193D2*
X2531050D1*
X515232Y504814D2*
X705263D1*
X1125443D2*
X1169819D1*
X1981245D2*
X2531050D1*
X515232Y479945D2*
X705263D1*
X1125443D2*
X1169819D1*
X1986878D2*
X2531050D1*
X515232Y455077D2*
X705263D1*
X1125443D2*
X1169819D1*
X1980850D2*
X2531050D1*
X421718Y430208D2*
X839362D1*
X894492D2*
X939371D1*
X994501D2*
X1008412D1*
X1125443D2*
X1169819D1*
X1286886D2*
X1300761D1*
X1355927D2*
X1400770D1*
X1455900D2*
X1500779D1*
X1555909D2*
X1600788D1*
X1655919D2*
X1700762D1*
X1755928D2*
X1800771D1*
X1855901D2*
X1900780D1*
X1955910D2*
X2531050D1*
X926953Y1125318D2*
X955239D1*
Y1100809D1*
X963195Y1100403D1*
X968010Y1099246D1*
X969562Y1104077D1*
Y1134942D1*
X917499Y1134916D1*
X925429Y1126991D1*
X778092Y1125318D2*
X798640D1*
X789023Y1134931D1*
X753027Y1134916D1*
Y1156626D1*
X746766Y1155122D1*
X740157Y1154602D1*
X733548Y1155122D1*
X727101Y1156669D1*
X720976Y1159206D1*
X715324Y1162670D1*
X710283Y1166976D1*
X705977Y1172017D1*
X702513Y1177669D1*
X699976Y1183794D1*
X698429Y1190241D1*
X697909Y1196850D1*
X698429Y1203459D1*
X699976Y1209905D1*
X702513Y1216030D1*
X705977Y1221682D1*
X710283Y1226723D1*
X715324Y1231029D1*
X720976Y1234493D1*
X727101Y1237030D1*
X733548Y1238577D1*
X740157Y1239098D1*
X746766Y1238577D1*
X753025Y1237083D1*
X753027Y1258783D1*
X779545D1*
X779620Y1372549D1*
X780393Y1377432D1*
X781921Y1382133D1*
X784165Y1386537D1*
X787070Y1390536D1*
X813552Y1417155D1*
X817311Y1420365D1*
X821534Y1422952D1*
X822515Y1423827D1*
Y1459101D1*
X734236Y1370928D1*
X732286Y1369392D1*
X731814Y1366591D1*
Y1349680D1*
X658473Y1349530D1*
X731814D1*
Y1259129D1*
X594169D1*
Y1267992D1*
X579709Y1267987D1*
X614503Y1233055D1*
X617409Y1229056D1*
X619653Y1224652D1*
X621180Y1219951D1*
X621953Y1215069D1*
X622051Y1148293D1*
X621953Y1072331D1*
X621180Y1067449D1*
X619653Y1062748D1*
X617409Y1058344D1*
X614503Y1054345D1*
X612817Y1052522D1*
X610432Y1049003D1*
X776253D1*
X776255Y1125318D1*
X778092D1*
X1481038Y1111145D2*
X1504846D1*
Y1069627D1*
X1508877Y1073664D1*
X1508963Y1115379D1*
X1509712Y1120106D1*
X1511191Y1124658D1*
X1513364Y1128922D1*
X1516177Y1132794D1*
X1536909Y1153659D1*
X1536891Y1257502D1*
X1466178Y1186824D1*
X1472860Y1184701D1*
X1478767Y1181691D1*
X1484130Y1177794D1*
X1488818Y1173106D1*
X1492714Y1167743D1*
X1495724Y1161836D1*
X1497773Y1155531D1*
X1498810Y1148983D1*
Y1142354D1*
X1497773Y1135806D1*
X1495724Y1129501D1*
X1492714Y1123594D1*
X1488818Y1118231D1*
X1484130Y1113543D1*
X1481019Y1111151D1*
X813113Y627575D2*
Y605389D1*
X794274D1*
X794279Y558026D1*
X819806Y557995D1*
Y510592D1*
X823900Y516198D1*
X828963Y521517D1*
X834678Y526129D1*
X840947Y529954D1*
X847663Y532925D1*
X854710Y534993D1*
X861966Y536122D1*
X869308Y536291D1*
X876609Y535499D1*
X883744Y533759D1*
X890590Y531100D1*
X897029Y527569D1*
X902951Y523226D1*
X908254Y518146D1*
X912847Y512416D1*
X916924Y505589D1*
X921601Y513246D1*
X927311Y519932D1*
X933996Y525641D1*
X936440Y527274D1*
X936428Y573864D1*
X845547Y573893D1*
Y652802D1*
X826894Y634287D1*
X823022Y631474D1*
X818758Y629301D1*
X814197Y627820D1*
X733271Y605389D2*
X701058D1*
Y784373D1*
X813113D1*
Y706641D1*
X855373Y748901D1*
X855909Y754640D1*
X857457Y761086D1*
X859994Y767211D1*
X863458Y772863D1*
X867763Y777905D1*
X872804Y782210D1*
X878457Y785674D1*
X884582Y788211D1*
X891028Y789759D1*
X897637Y790279D1*
X904246Y789759D1*
X910692Y788211D1*
X916817Y785674D1*
X922470Y782210D1*
X927511Y777905D1*
X931816Y772863D1*
X935280Y767211D1*
X937817Y761086D1*
X939365Y754640D1*
X939885Y748031D1*
X939365Y741422D1*
X937817Y734975D1*
X935280Y728851D1*
X931816Y723198D1*
X927511Y718157D1*
X922470Y713851D1*
X916817Y710387D1*
X910692Y707850D1*
X904246Y706303D1*
X898556Y705819D1*
X878682Y685942D1*
X1075712Y685948D1*
Y573893D1*
X1069073D1*
X1090881Y551953D1*
X1093787Y547954D1*
X1096031Y543550D1*
X1097558Y538849D1*
X1098042Y536413D1*
X1122956Y536342D1*
Y424286D1*
X1010901D1*
Y445566D1*
X1006546Y440697D1*
X999861Y434987D1*
X992364Y430393D1*
X984242Y427029D1*
X975693Y424976D1*
X966928Y424287D1*
X958164Y424976D1*
X949615Y427029D1*
X941492Y430393D1*
X933996Y434987D1*
X927311Y440697D1*
X921601Y447382D1*
X916928Y455050D1*
X913476Y449130D1*
X908997Y443310D1*
X903796Y438126D1*
X897961Y433666D1*
X891594Y430008D1*
X884802Y427214D1*
X877703Y425332D1*
X870420Y424395D1*
X863076Y424419D1*
X855798Y425403D1*
X848712Y427331D1*
X841938Y430168D1*
X835594Y433868D1*
X829789Y438365D1*
X824621Y443583D1*
X820180Y449432D1*
X819806Y449877D1*
X707751D1*
Y557995D1*
X733265D1*
X733279Y605381D1*
X489510Y1494216D2*
X594170D1*
X594169Y1530633D1*
X731814D1*
Y1457465D1*
X798439Y1523952D1*
X802438Y1526857D1*
X806842Y1529101D1*
X811543Y1530629D1*
X816425Y1531402D1*
X883201Y1531499D1*
X1010345Y1531402D1*
X1015236Y1530626D1*
X1026293Y1529916D1*
X1032740Y1528368D1*
X1038864Y1525831D1*
X1044517Y1522368D1*
X1049558Y1518062D1*
X1053864Y1513021D1*
X1057328Y1507368D1*
X1059865Y1501244D1*
X1061412Y1494797D1*
X1061932Y1488188D1*
X1061412Y1481579D1*
X1059865Y1475133D1*
X1057328Y1469008D1*
X1053864Y1463355D1*
X1049558Y1458314D1*
X1044517Y1454009D1*
X1038864Y1450545D1*
X1032740Y1448008D1*
X1026293Y1446460D1*
X1019684Y1445940D1*
X1013075Y1446460D1*
X1006629Y1448008D1*
X1000504Y1450545D1*
X994851Y1454009D1*
X989810Y1458314D1*
X985505Y1463355D1*
X982326Y1468499D1*
X960183D1*
X960161Y1304404D1*
X842497D1*
X842523Y1258801D1*
X979255Y1258783D1*
Y1205638D1*
X1005977Y1205633D1*
X1008295Y1208776D1*
X1061886Y1262500D1*
X1223696Y1424310D1*
X1172318Y1424287D1*
Y1536342D1*
X1284373D1*
Y1515062D1*
X1288728Y1519932D1*
X1295413Y1525641D1*
X1302910Y1530235D1*
X1311032Y1533600D1*
X1319581Y1535652D1*
X1328346Y1536342D1*
X1337110Y1535652D1*
X1345659Y1533600D1*
X1353782Y1530235D1*
X1361278Y1525641D1*
X1367963Y1519932D1*
X1373673Y1513246D1*
X1378346Y1505578D1*
X1383018Y1513246D1*
X1388728Y1519932D1*
X1395413Y1525641D1*
X1402910Y1530235D1*
X1411032Y1533600D1*
X1419581Y1535652D1*
X1428346Y1536342D1*
X1437110Y1535652D1*
X1445659Y1533600D1*
X1453782Y1530235D1*
X1461278Y1525641D1*
X1467963Y1519932D1*
X1473673Y1513246D1*
X1478346Y1505578D1*
X1483018Y1513246D1*
X1488728Y1519932D1*
X1495413Y1525641D1*
X1502910Y1530235D1*
X1511032Y1533600D1*
X1519581Y1535652D1*
X1528346Y1536342D1*
X1537110Y1535652D1*
X1545659Y1533600D1*
X1553782Y1530235D1*
X1561278Y1525641D1*
X1567963Y1519932D1*
X1573673Y1513246D1*
X1578346Y1505578D1*
X1583018Y1513246D1*
X1588728Y1519932D1*
X1595413Y1525641D1*
X1602910Y1530235D1*
X1611032Y1533600D1*
X1619581Y1535652D1*
X1628346Y1536342D1*
X1637110Y1535652D1*
X1645659Y1533600D1*
X1653782Y1530235D1*
X1661278Y1525641D1*
X1667963Y1519932D1*
X1673673Y1513246D1*
X1678346Y1505578D1*
X1683018Y1513246D1*
X1688728Y1519932D1*
X1695413Y1525641D1*
X1702910Y1530235D1*
X1711032Y1533600D1*
X1719581Y1535652D1*
X1728346Y1536342D1*
X1737110Y1535652D1*
X1745659Y1533600D1*
X1753782Y1530235D1*
X1761278Y1525641D1*
X1767963Y1519932D1*
X1773673Y1513246D1*
X1778346Y1505578D1*
X1783018Y1513246D1*
X1788728Y1519932D1*
X1795413Y1525641D1*
X1802910Y1530235D1*
X1811032Y1533600D1*
X1819581Y1535652D1*
X1828346Y1536342D1*
X1837110Y1535652D1*
X1845659Y1533600D1*
X1853782Y1530235D1*
X1861278Y1525641D1*
X1867963Y1519932D1*
X1873673Y1513246D1*
X1878346Y1505578D1*
X1882001Y1511798D1*
X1886517Y1517589D1*
X1891751Y1522740D1*
X1897615Y1527162D1*
X1904006Y1530779D1*
X1910816Y1533529D1*
X1917926Y1535364D1*
X1925216Y1536254D1*
X1932560Y1536183D1*
X1939831Y1535152D1*
X1946904Y1533179D1*
X1953659Y1530297D1*
X1959979Y1526557D1*
X1965756Y1522022D1*
X1970890Y1516771D1*
X1975292Y1510893D1*
X1978889Y1504490D1*
X1981617Y1497672D1*
X1983429Y1490556D1*
X1984296Y1483263D1*
X1984253Y1476642D1*
X1983292Y1469362D1*
X1981388Y1462269D1*
X1978572Y1455486D1*
X1974893Y1449130D1*
X1970415Y1443310D1*
X1965213Y1438126D1*
X1959379Y1433666D1*
X1953011Y1430008D1*
X1946219Y1427214D1*
X1939121Y1425332D1*
X1931837Y1424395D1*
X1924493Y1424419D1*
X1917215Y1425403D1*
X1910129Y1427331D1*
X1903356Y1430168D1*
X1897012Y1433868D1*
X1891206Y1438365D1*
X1886038Y1443583D1*
X1881598Y1449432D1*
X1878353Y1455037D1*
X1873673Y1447382D1*
X1869071Y1441896D1*
X1869082Y1311865D1*
X1932185Y1248742D1*
X1932161Y1398546D1*
X2044216D1*
Y1344110D1*
X2049970Y1349139D1*
X2055622Y1352603D1*
X2061747Y1355140D1*
X2068193Y1356688D1*
X2074802Y1357208D1*
X2081411Y1356688D1*
X2087858Y1355140D1*
X2089645Y1354481D1*
X2089641Y1390672D1*
X2201696D1*
Y1225118D1*
X2206346Y1230660D1*
X2211387Y1234966D1*
X2217039Y1238430D1*
X2223164Y1240967D1*
X2229611Y1242515D1*
X2235818Y1243019D1*
X2228851Y1245821D1*
X2223198Y1249284D1*
X2218157Y1253590D1*
X2213851Y1258631D1*
X2210387Y1264284D1*
X2207850Y1270408D1*
X2206303Y1276855D1*
X2205783Y1283464D1*
X2206303Y1290073D1*
X2207850Y1296519D1*
X2210387Y1302644D1*
X2213851Y1308297D1*
X2218157Y1313338D1*
X2223198Y1317643D1*
X2228851Y1321107D1*
X2234975Y1323644D1*
X2241422Y1325192D1*
X2248031Y1325712D1*
X2254640Y1325192D1*
X2261086Y1323644D1*
X2267211Y1321107D1*
X2272863Y1317643D1*
X2277229Y1313962D1*
X2322212Y1313771D1*
X2328759Y1312733D1*
X2335064Y1310685D1*
X2340971Y1307675D1*
X2346335Y1303778D1*
X2351023Y1299091D1*
X2354919Y1293727D1*
X2357929Y1287820D1*
X2359978Y1281515D1*
X2361015Y1274967D1*
Y1268338D1*
X2359978Y1261790D1*
X2357929Y1255485D1*
X2354919Y1249578D1*
X2350767Y1243939D1*
X2354835Y1246304D1*
X2360960Y1248841D1*
X2367406Y1250389D1*
X2374015Y1250909D1*
X2380624Y1250389D1*
X2387070Y1248841D1*
X2393195Y1246304D1*
X2398848Y1242840D1*
X2403889Y1238534D1*
X2408194Y1233493D1*
X2411658Y1227841D1*
X2414195Y1221716D1*
X2415743Y1215270D1*
X2416263Y1208661D1*
X2415743Y1202052D1*
X2414195Y1195605D1*
X2411658Y1189480D1*
X2408194Y1183828D1*
X2403889Y1178787D1*
X2398848Y1174481D1*
X2393195Y1171017D1*
X2387070Y1168480D1*
X2380624Y1166933D1*
X2374015Y1166413D1*
X2367406Y1166933D1*
X2360960Y1168480D1*
X2356423Y1170285D1*
X2265486Y1170287D1*
X2261052Y1166607D1*
X2255400Y1163143D1*
X2249275Y1160606D1*
X2242829Y1159059D1*
X2236220Y1158539D1*
X2231245Y1158865D1*
X2231287Y933070D1*
X2230911Y928299D1*
X2229794Y923645D1*
X2227962Y919223D1*
X2225462Y915143D1*
X2222353Y911503D1*
X2218714Y908395D1*
X2214633Y905894D1*
X2210212Y904063D1*
X2205558Y902945D1*
X2203170Y902664D1*
X2201696Y894609D1*
Y843167D1*
X2307960Y949519D1*
X2311599Y952627D1*
X2315680Y955128D1*
X2320102Y956959D1*
X2324756Y958077D1*
X2329536Y958452D1*
X2334645Y959524D1*
X2332310Y966711D1*
X2331128Y974174D1*
Y981730D1*
X2332310Y989193D1*
X2334645Y996380D1*
X2337982Y1002945D1*
X2334645Y1009524D1*
X2332310Y1016711D1*
X2331128Y1024174D1*
Y1031730D1*
X2332310Y1039193D1*
X2334645Y1046380D1*
X2337982Y1052945D1*
X2334645Y1059524D1*
X2332310Y1066711D1*
X2331128Y1074174D1*
Y1081730D1*
X2332310Y1089193D1*
X2334645Y1096380D1*
X2338075Y1103112D1*
X2342517Y1109225D1*
X2347860Y1114568D1*
X2353973Y1119010D1*
X2360706Y1122440D1*
X2367892Y1124775D1*
X2375355Y1125957D1*
X2382911D1*
X2390374Y1124775D1*
X2397561Y1122440D1*
X2404126Y1119103D1*
X2410340Y1122287D1*
X2417298Y1124628D1*
X2424532Y1125885D1*
X2431872Y1126028D1*
X2439149Y1125052D1*
X2446193Y1122982D1*
X2452841Y1119865D1*
X2458937Y1115774D1*
X2464340Y1110803D1*
X2468925Y1105069D1*
X2472585Y1098704D1*
X2475235Y1091857D1*
X2476813Y1084687D1*
X2477287Y1077952D1*
X2476727Y1070631D1*
X2475061Y1063481D1*
X2472327Y1056667D1*
X2470281Y1052954D1*
X2473621Y1046380D1*
X2475956Y1039193D1*
X2477138Y1031730D1*
Y1024174D1*
X2475956Y1016711D1*
X2473621Y1009524D1*
X2470285Y1002959D1*
X2473345Y997032D1*
X2475732Y990089D1*
X2477036Y982863D1*
X2477252Y976115D1*
X2476413Y968821D1*
X2474475Y961740D1*
X2471484Y955035D1*
X2470281Y952954D1*
X2473345Y947032D1*
X2475732Y940089D1*
X2477036Y932863D1*
X2477287Y926105D1*
Y829798D1*
X2456869D1*
X2453808Y824591D1*
X2450700Y820952D1*
X2388711Y758963D1*
X2388184Y753233D1*
X2386636Y746786D1*
X2384099Y740662D1*
X2380635Y735009D1*
X2376330Y729968D1*
X2371289Y725662D1*
X2365636Y722198D1*
X2359511Y719661D1*
X2353065Y718114D1*
X2346456Y717594D1*
X2339847Y718114D1*
X2333401Y719661D1*
X2327276Y722198D1*
X2321623Y725662D1*
X2316582Y729968D1*
X2312277Y735009D1*
X2308813Y740662D1*
X2306276Y746786D1*
X2304728Y753233D1*
X2304208Y759842D1*
X2304728Y766451D1*
X2306276Y772897D1*
X2308813Y779022D1*
X2312277Y784675D1*
X2316582Y789716D1*
X2321623Y794021D1*
X2327276Y797485D1*
X2333401Y800022D1*
X2339847Y801570D1*
X2345537Y802054D1*
X2373582Y830101D1*
X2367892Y831129D1*
X2360706Y833464D1*
X2353973Y836894D1*
X2347860Y841336D1*
X2342517Y846679D1*
X2338075Y852792D1*
X2334645Y859524D1*
X2332310Y866711D1*
X2331128Y874174D1*
Y881730D1*
X2331915Y887209D1*
X2254901Y810193D1*
X2254815Y781071D1*
X2254066Y776344D1*
X2252587Y771792D1*
X2250414Y767528D1*
X2247601Y763656D1*
X2198731Y714653D1*
X2195092Y711545D1*
X2191011Y709044D1*
X2186590Y707212D1*
X2181936Y706095D1*
X2177165Y705720D1*
X2109164D1*
X2111654Y701695D1*
X2201696Y701696D1*
Y522712D1*
X2089641D1*
Y544278D1*
X2009417Y544396D1*
X2004690Y545145D1*
X2000138Y546624D1*
X1995874Y548797D1*
X1992002Y551610D1*
X1989254Y554225D1*
X1924287Y554208D1*
Y705724D1*
X1906347Y705720D1*
X1858861Y658247D1*
X1858846Y527293D1*
X1864733Y522918D1*
X1870949Y516701D1*
X1876117Y509588D1*
X1878346Y505578D1*
X1882001Y511798D1*
X1886517Y517589D1*
X1891751Y522740D1*
X1897615Y527162D1*
X1904006Y530779D1*
X1910816Y533529D1*
X1917926Y535364D1*
X1925216Y536254D1*
X1932560Y536183D1*
X1939831Y535152D1*
X1946904Y533179D1*
X1953659Y530297D1*
X1959979Y526557D1*
X1965756Y522022D1*
X1970890Y516771D1*
X1975292Y510893D1*
X1978889Y504490D1*
X1981617Y497672D1*
X1983429Y490556D1*
X1984296Y483263D1*
X1984253Y476642D1*
X1983292Y469362D1*
X1981388Y462269D1*
X1978572Y455486D1*
X1974893Y449130D1*
X1970415Y443310D1*
X1965213Y438126D1*
X1959379Y433666D1*
X1953011Y430008D1*
X1946219Y427214D1*
X1939121Y425332D1*
X1931837Y424395D1*
X1924493Y424419D1*
X1917215Y425403D1*
X1910129Y427331D1*
X1903356Y430168D1*
X1897012Y433868D1*
X1891206Y438365D1*
X1886038Y443583D1*
X1881598Y449432D1*
X1878353Y455037D1*
X1873673Y447382D1*
X1867963Y440697D1*
X1861278Y434987D1*
X1853782Y430393D1*
X1845659Y427029D1*
X1837110Y424976D1*
X1828346Y424287D1*
X1819581Y424976D1*
X1811032Y427029D1*
X1802910Y430393D1*
X1795413Y434987D1*
X1788728Y440697D1*
X1783018Y447382D1*
X1778346Y455050D1*
X1773673Y447382D1*
X1767963Y440697D1*
X1761278Y434987D1*
X1753782Y430393D1*
X1745659Y427029D1*
X1737110Y424976D1*
X1728346Y424287D1*
X1719581Y424976D1*
X1711032Y427029D1*
X1702910Y430393D1*
X1695413Y434987D1*
X1688728Y440697D1*
X1683018Y447382D1*
X1678346Y455050D1*
X1673673Y447382D1*
X1667963Y440697D1*
X1661278Y434987D1*
X1653782Y430393D1*
X1645659Y427029D1*
X1637110Y424976D1*
X1628346Y424287D1*
X1619581Y424976D1*
X1611032Y427029D1*
X1602910Y430393D1*
X1595413Y434987D1*
X1588728Y440697D1*
X1583018Y447382D1*
X1578346Y455050D1*
X1573673Y447382D1*
X1567963Y440697D1*
X1561278Y434987D1*
X1553782Y430393D1*
X1545659Y427029D1*
X1537110Y424976D1*
X1528346Y424287D1*
X1519581Y424976D1*
X1511032Y427029D1*
X1502910Y430393D1*
X1495413Y434987D1*
X1488728Y440697D1*
X1483018Y447382D1*
X1478346Y455050D1*
X1473673Y447382D1*
X1467963Y440697D1*
X1461278Y434987D1*
X1453782Y430393D1*
X1445659Y427029D1*
X1437110Y424976D1*
X1428346Y424287D1*
X1419581Y424976D1*
X1411032Y427029D1*
X1402910Y430393D1*
X1395413Y434987D1*
X1388728Y440697D1*
X1383018Y447382D1*
X1378346Y455050D1*
X1373673Y447382D1*
X1367963Y440697D1*
X1361278Y434987D1*
X1353782Y430393D1*
X1345659Y427029D1*
X1337110Y424976D1*
X1328346Y424287D1*
X1319581Y424976D1*
X1311032Y427029D1*
X1302910Y430393D1*
X1295413Y434987D1*
X1288728Y440697D1*
X1284370Y445668D1*
X1284373Y424287D1*
X1172318D1*
Y536342D1*
X1231563D1*
X1008303Y759719D1*
X1005490Y763591D1*
X1003317Y767855D1*
X1001838Y772407D1*
X1001089Y777134D1*
X1000995Y853018D1*
Y906593D1*
X969562Y906570D1*
Y962380D1*
X608366Y962412D1*
X608384Y907357D1*
X571344D1*
X570140Y902638D1*
X567898Y897226D1*
X564838Y892232D1*
X561034Y887778D1*
X556580Y883974D1*
X551586Y880914D1*
X547925Y879318D1*
X547924Y850478D1*
X513870D1*
X513896Y773499D1*
X480488D1*
X480499Y772558D1*
X615082Y772562D1*
Y660507D1*
X436098D1*
Y717599D1*
X426807Y727041D1*
X423994Y730913D1*
X421821Y735178D1*
X420342Y739729D1*
X419593Y744457D1*
X419499Y773512D1*
X419200Y771776D1*
Y558014D1*
X512720Y557995D1*
Y449877D1*
X419199D1*
X419200Y419214D1*
X2533520Y419200D1*
X2533554Y1549288D1*
X419234Y1549302D1*
X419200Y1410766D1*
X487676Y1410751D1*
X487673Y1494216D1*
X489510D1*
X1705127Y1189885D2*
X1807995D1*
Y1010901D1*
X1695940D1*
Y1107270D1*
X1668609Y1107294D1*
X1668631Y1036491D1*
X1558000D1*
X1500927Y979447D1*
X1500909Y924286D1*
X1377124D1*
X1459066Y842334D1*
X1536920Y842310D1*
X1536891Y951696D1*
X1668631D1*
Y829725D1*
X1703814Y829798D1*
Y926105D1*
X1815870D1*
X1815869Y747121D1*
X1703814D1*
Y768687D1*
X1668660Y768712D1*
X1668631Y671924D1*
X1623165D1*
X1630746Y664355D1*
X1667747Y664264D1*
X1672474Y663515D1*
X1677025Y662036D1*
X1681290Y659863D1*
X1685162Y657050D1*
X1738886Y603458D1*
X1797846Y544619D1*
X1797940Y673258D1*
X1798688Y677985D1*
X1800167Y682537D1*
X1802340Y686802D1*
X1805153Y690674D1*
X1858745Y744398D1*
X1873892Y759412D1*
X1877764Y762225D1*
X1882028Y764398D1*
X1886580Y765877D1*
X1891307Y766626D1*
X1920362Y766720D1*
X1920350Y844834D1*
X1915286Y846839D1*
X1911206Y849340D1*
X1907560Y852455D1*
X1882319Y877829D1*
X1879505Y881701D1*
X1877333Y885965D1*
X1875854Y890517D1*
X1875105Y895244D1*
X1875011Y971128D1*
Y1140896D1*
X1736649Y1279404D1*
X1733836Y1283276D1*
X1731663Y1287540D1*
X1730184Y1292092D1*
X1729436Y1296819D1*
X1729342Y1335634D1*
X1614998Y1335641D1*
X1595636Y1316282D1*
X1668631Y1316263D1*
Y1168312D1*
X1695940Y1168381D1*
Y1189885D1*
X1705127D1*
X2195416Y1211688D2*
X2189747D1*
X2194440Y1206960D1*
X2195431Y1211684D1*
X2265465Y1231287D2*
X2305841Y1231472D1*
X2299717Y1234009D1*
X2294064Y1237473D1*
X2289023Y1241779D1*
X2284717Y1246820D1*
X2281031Y1252955D1*
X2277246Y1252964D1*
X2272863Y1249284D1*
X2267211Y1245821D1*
X2261086Y1243284D1*
X2254640Y1241736D1*
X2248432Y1241232D1*
X2255400Y1238430D1*
X2261052Y1234966D1*
X2265418Y1231285D1*
X2331349Y1231287D2*
X2338310D1*
X2342144Y1236374D1*
X2338077Y1234009D1*
X2331291Y1231286D1*
X776291Y1069291D2*
D16*
X828346D1*
X757086Y784337D2*
Y732283D1*
X701094D2*
X813078D1*
X549606Y1494180D2*
Y1436220D1*
X487708D2*
X549606D1*
X921259Y1258747D2*
Y1134952D1*
Y1196850D2*
X979219D1*
X1751968Y1062991D2*
Y1010936D1*
X1695976Y1062991D2*
X1807960D1*
X1759842Y926069D2*
Y874015D1*
X1703850D2*
X1815834D1*
X1928346Y1536306D2*
Y1424322D1*
Y1480314D2*
X1984337D1*
X1928346Y536306D2*
Y424322D1*
Y480314D2*
X1984337D1*
X555309Y941731D2*
X608348D1*
X2429133Y927952D2*
X2477251D1*
X2429133Y977952D2*
X2477251D1*
X2429133Y1126070D2*
Y1077952D1*
X2477251D1*
X866928Y536306D2*
Y424322D1*
X459842Y1410715D2*
Y1358661D1*
X562991Y772526D2*
Y660543D1*
Y716535D2*
X615046D1*
X1924323Y681102D2*
X1980314D1*
X1988188Y1398510D2*
Y1346456D1*
X1932197D2*
X2044180D1*
X897637Y685912D2*
Y573929D1*
X845582Y629920D2*
X897637D1*
X456692Y557959D2*
Y449913D1*
Y503936D2*
X512684D1*
X662991Y1530597D2*
Y1485432D1*
X594205D2*
X731778D1*
D17*
X903149Y1069291D3*
X828346D3*
X1377952Y1055117D3*
X1452755D3*
D18*
X757086Y657480D3*
Y732283D3*
D19*
X549606Y1325983D3*
Y1436220D3*
D20*
X811023Y1196850D3*
X921259D3*
D18*
X1751968Y1137794D3*
Y1062991D3*
X1759842Y799212D3*
Y874015D3*
X2145669Y649606D3*
Y574802D3*
Y870078D3*
Y795275D3*
Y1082676D3*
Y1007873D3*
Y1338582D3*
Y1263779D3*
D21*
X1228346Y1480314D3*
D22*
X1328346D3*
X1428346D3*
X1528346D3*
X1628346D3*
X1728346D3*
X1828346D3*
X1928346D3*
D21*
X1228346Y480314D3*
D22*
X1328346D3*
X1428346D3*
X1528346D3*
X1628346D3*
X1728346D3*
X1828346D3*
X1928346D3*
D24*
X449994Y1148424D3*
Y837401D3*
D25*
X555309Y1044094D3*
Y1018503D3*
Y992913D3*
Y967322D3*
Y941731D3*
D24*
X449994Y1040157D3*
Y945669D3*
D26*
X2429133Y877952D3*
D27*
X2379133D3*
X2429133Y927952D3*
X2379133D3*
X2429133Y977952D3*
X2379133D3*
X2429133Y1027952D3*
X2379133D3*
X2429133Y1077952D3*
X2379133D3*
D21*
X1066928Y480314D3*
D22*
X966928D3*
X866928D3*
D18*
X459842Y1283857D3*
Y1358661D3*
D17*
X488188Y716535D3*
X562991D3*
X1374015Y980314D3*
X1448818D3*
D18*
X1980314Y606298D3*
Y681102D3*
X1976377Y799212D3*
Y874015D3*
X1980314Y1015747D3*
Y1090550D3*
X1988188Y1271653D3*
Y1346456D3*
D17*
X1023621Y629920D3*
X960629D3*
X897637D3*
D28*
X763779Y503936D3*
X456692D3*
D30*
X662991Y1485432D3*
Y1394881D3*
Y1304330D3*
D31*
X891338Y1394881D3*
D32*
X1259842Y940944D3*
Y966535D3*
Y992125D3*
Y1017716D3*
Y1043306D3*
Y1068897D3*
Y1094487D3*
Y1120078D3*
Y1145669D3*
Y1171259D3*
X1031487D3*
X1031495Y1145669D3*
Y1120078D3*
Y1094487D3*
Y1068897D3*
Y1043306D3*
Y1017716D3*
Y992125D3*
Y966535D3*
Y940944D3*
D34*
X1602760Y811810D3*
Y1176377D3*
D35*
Y898031D3*
Y1090157D3*
M02*
