M48
INCH
T01C0.0138
T02C0.0217
T03C0.0276
T04C0.0319
T05C0.0354
%
T01
X+020866Y+011693
X+020748Y+013150
X+022480Y+012835
X+023189Y+012717
X+023740Y+012087
X+022362Y+012008
X+020709Y+008740
X+020748Y+006811
X+023465Y+007598
X+018228Y+009173
X+015118Y+011705
X+014567Y+011457
X+014449Y+013307
X+011811Y+011417
X+009803Y+012480
X+010197Y+014882
X+007402Y+011968
X+007165Y+011299
X+006976Y+009417
X+008976Y+007480
X+011890Y+008071
X+011811Y+008858
X+012598Y+009016
X+005827Y+015197
T02
X+005346Y+010717
X+005346Y+009142
T03
X+024291Y+008780
X+023791Y+008780
X+023791Y+009280
X+024291Y+009280
X+024291Y+009780
X+023791Y+009780
X+023791Y+010280
X+024291Y+010280
X+024291Y+010780
X+023791Y+010780
T04
X+016028Y+008980
X+016028Y+010902
T05
X+012283Y+014803
X+013283Y+014803
X+014283Y+014803
X+015283Y+014803
X+016283Y+014803
X+017283Y+014803
X+018283Y+014803
X+019283Y+014803
X+019283Y+004803
X+018283Y+004803
X+017283Y+004803
X+016283Y+004803
X+015283Y+004803
X+014283Y+004803
X+013283Y+004803
X+012283Y+004803
X+010669Y+004803
X+009669Y+004803
X+008669Y+004803
T00
M30
